<?xml version="1.0" encoding="UTF-8"?>
<svg id="Layer_1" data-name="Layer 1" xmlns="http://www.w3.org/2000/svg" viewBox="0 0 479.26 479.26">
  <defs>
    <style>
      .cls-1 {
        fill: #2C4F93;
      }

      .cls-2 {
        fill: #fff;
        stroke: #fff;
        stroke-miterlimit: 10;
        stroke-width: 12px;
      }
    </style>
  </defs>
  <path class="cls-1" d="M438.3,248.86l-37.37,43.24,6.2,56.06c.79,6.94-3.66,14.12-10.46,15.95l-58.09,11.83-30.14,50.83c-3.53,5.11-10.32,7.55-16.28,5.42l-52.55-23.87-52.93,24.06c-5.86,1.78-12.37-.86-15.79-5.81l-29.94-50.66-58.67-11.85c-5.33-1.61-8.92-6.24-10-11.59,1.25-19.62,3.97-39.18,5.96-58.75l-.05-1.62-37.84-43.96c-3.78-4.96-3.77-12.44.24-17.26l37.61-43.23c.1-1.34-.08-2.7-.19-4.03-1.66-18.72-4.66-37.38-5.75-56.13.85-5.64,5.18-10.95,10.88-12.15l57.85-11.71,29.9-50.94c3.74-5.43,11.23-7.97,17.39-5.25l51.49,23.5,52.22-23.81c5.99-2.22,12.69.17,16.36,5.22l30.42,51.38,57.85,11.71c6.91,1.84,11.32,9.13,10.51,16.13l-6.21,55.83,38.21,44.09c3.76,5.12,3.36,12.61-.83,17.37Z"/>
  <g>
    <polygon class="cls-2" points="318.9 151.27 328.24 160.18 160.34 328.22 151.2 318.79 318.9 151.27"/>
    <path class="cls-2" d="M291.22,258.35c22.36-1.34,40.06,16.65,38.03,39.05-2.85,31.43-42.87,43.39-62.95,18.85-17.94-21.92-3.39-56.2,24.91-57.9ZM292.96,271.4c-14.22.69-23.35,12.91-20.96,26.82,2.94,17.08,24.23,23.81,36.94,12.38,15.36-13.81,5.09-40.23-15.99-39.19Z"/>
    <path class="cls-2" d="M182.15,150c22.49-1.51,40.36,15.7,38.76,38.33-2.19,31.04-41.49,43.68-62.31,20.38-19.07-21.35-5.06-56.78,23.54-58.7ZM184.03,163.05c-21.12,1.25-28.68,28.22-11.91,40.4,12.01,8.72,30.43,3.27,34.75-11.18,4.61-15.4-6.77-30.17-22.84-29.22Z"/>
  </g>
</svg>
