<?xml version="1.0" encoding="UTF-8"?>
<svg width="24px" height="24px" viewBox="0 0 24 24" version="1.1" xmlns="http://www.w3.org/2000/svg" xmlns:xlink="http://www.w3.org/1999/xlink">
    <title>Logo/Bank/StateBankOfIndia</title>
    <g id="Logos" stroke="none" stroke-width="1" fill="none" fill-rule="evenodd">
        <g id="Checkout-X-Icon-&amp;-Logo-Repository" transform="translate(-777.000000, -1343.000000)">
            <g id="Group-43" transform="translate(777.000000, 1343.000000)">
                <rect id="Rectangle" fill-rule="nonzero" x="0" y="0" width="24" height="24"></rect>
                <g id="SBI-logo-2" transform="translate(-0.000000, 0.000000)" fill="#1166DD">
                    <path d="M11.232,24 C4.7939951,23.5837914 -0.153202403,18.1129569 0.0541766515,11.6390579 C0.261555705,5.16515893 5.54866264,0.0247994194 12,0.0247994194 C18.4513374,0.0247994194 23.7384443,5.16515893 23.9458233,11.6390579 C24.1532024,18.1129569 19.2060049,23.5837914 12.768,24 L12.768,14.1686747 C13.7422378,13.7965729 14.3128309,12.7790104 14.1244208,11.7497126 C13.9360106,10.7204148 13.04235,9.97303703 12,9.97303703 C10.95765,9.97303703 10.0639894,10.7204148 9.87557925,11.7497126 C9.68716911,12.7790104 10.2577622,13.7965729 11.232,14.1686747" id="Path"></path>
                </g>
            </g>
        </g>
    </g>
</svg>